<svg width="110" height="111" viewBox="0 0 110 111" fill="none" xmlns="http://www.w3.org/2000/svg">
<path d="M79.5996 39.3194C79.5996 17.6046 61.9894 0.0166016 40.2556 0.0166016C18.5219 0.0166016 0.911713 17.6046 0.911713 39.3194C0.911713 47.7449 3.57878 55.5072 8.09954 61.9185C5.56489 69.3369 1.3846 75.2323 1.32785 75.306C0.911713 75.871 0.798221 76.7062 1.04412 77.4431C1.29002 78.1801 1.81965 78.6222 2.42494 78.6222C9.34796 78.6222 15.0793 75.6008 19.2029 72.4811C25.2936 76.3377 32.5003 78.6222 40.2556 78.6222C61.9894 78.6222 79.5996 61.0342 79.5996 39.3194ZM102.676 93.3608C107.197 86.9741 109.864 79.1872 109.864 70.7617C109.864 54.3282 99.7444 40.2528 85.4066 34.382C85.5768 36.0032 85.6525 37.649 85.6525 39.3194C85.6525 65.3329 65.2806 86.4828 40.2556 86.4828C38.2128 86.4828 36.2267 86.2863 34.2595 86.0161C40.2178 100.14 54.2152 110.064 70.5202 110.064C78.2755 110.064 85.4822 107.805 91.573 103.923C95.6965 107.043 101.428 110.064 108.351 110.064C108.956 110.064 109.505 109.598 109.732 108.885C109.978 108.173 109.864 107.338 109.448 106.748C109.391 106.675 105.211 100.804 102.676 93.3608Z" fill="#A32F2F"/>
</svg>
