<svg width="41" height="39" viewBox="0 0 41 39" fill="none" xmlns="http://www.w3.org/2000/svg">
<path d="M20.3126 10.1381C14.663 10.1381 10.106 14.488 10.106 19.8809C10.106 25.2737 14.663 29.6236 20.3126 29.6236C25.9623 29.6236 30.5193 25.2737 30.5193 19.8809C30.5193 14.488 25.9623 10.1381 20.3126 10.1381ZM20.3126 26.2149C16.6617 26.2149 13.677 23.3743 13.677 19.8809C13.677 16.3874 16.6528 13.5468 20.3126 13.5468C23.9724 13.5468 26.9483 16.3874 26.9483 19.8809C26.9483 23.3743 23.9636 26.2149 20.3126 26.2149ZM33.3174 9.73961C33.3174 11.003 32.2515 12.0121 30.9368 12.0121C29.6132 12.0121 28.5561 10.9945 28.5561 9.73961C28.5561 8.48467 29.6221 7.46716 30.9368 7.46716C32.2515 7.46716 33.3174 8.48467 33.3174 9.73961ZM40.0775 12.046C39.9264 9.00191 39.198 6.30549 36.8618 4.08392C34.5344 1.86234 31.7096 1.16704 28.5206 1.01441C25.2338 0.836343 15.3825 0.836343 12.0958 1.01441C8.91564 1.15856 6.09082 1.85386 3.75457 4.07544C1.41832 6.29701 0.698791 8.99343 0.538895 12.0375C0.352351 15.1748 0.352351 24.5784 0.538895 27.7157C0.689908 30.7598 1.41832 33.4562 3.75457 35.6778C6.09082 37.8994 8.90675 38.5947 12.0958 38.7473C15.3825 38.9254 25.2338 38.9254 28.5206 38.7473C31.7096 38.6032 34.5344 37.9079 36.8618 35.6778C39.1892 33.4562 39.9176 30.7598 40.0775 27.7157C40.264 24.5784 40.264 15.1833 40.0775 12.046ZM35.8314 31.082C35.1385 32.744 33.7971 34.0243 32.0472 34.6942C29.4267 35.6863 23.2085 35.4573 20.3126 35.4573C17.4167 35.4573 11.1897 35.6778 8.57808 34.6942C6.83699 34.0328 5.49565 32.7524 4.79389 31.082C3.75457 28.5806 3.99441 22.6451 3.99441 19.8809C3.99441 17.1166 3.76345 11.1726 4.79389 8.6797C5.48677 7.01776 6.82811 5.73738 8.57808 5.06752C11.1986 4.07544 17.4167 4.30438 20.3126 4.30438C23.2085 4.30438 29.4355 4.08392 32.0472 5.06752C33.7882 5.7289 35.1296 7.00928 35.8314 8.6797C36.8707 11.1811 36.6308 17.1166 36.6308 19.8809C36.6308 22.6451 36.8707 28.5891 35.8314 31.082Z" fill="white"/>
</svg>
