<svg width="53" height="39" viewBox="0 0 53 39" fill="none" xmlns="http://www.w3.org/2000/svg">
<path d="M51.1516 3.45773C51.5096 1.97336 51.1516 0.880859 49.4292 0.880859H43.7301C42.2787 0.880859 41.6111 1.81898 41.2531 2.86398C41.2531 2.86398 38.3503 11.5446 34.2477 17.1734C32.9221 18.8002 32.3125 19.3227 31.5868 19.3227C31.2288 19.3227 30.6773 18.8002 30.6773 17.3159V3.45773C30.6773 1.67648 30.2709 0.880859 29.0711 0.880859H20.1111C19.2016 0.880859 18.6597 1.71211 18.6597 2.48398C18.6597 4.17023 20.7111 4.56211 20.9239 9.31211V19.6196C20.9239 21.8759 20.5949 22.2915 19.8692 22.2915C17.9341 22.2915 13.2315 13.5752 10.4449 3.60023C9.88367 1.66461 9.33214 0.880859 7.87108 0.880859H2.17195C0.546389 0.880859 0.217407 1.81898 0.217407 2.86398C0.217407 4.71648 2.1526 13.9196 9.22571 26.0796C13.9379 34.3802 20.5756 38.8809 26.6134 38.8809C30.2418 38.8809 30.6869 37.8834 30.6869 36.1615C30.6869 28.229 30.358 27.4809 32.177 27.4809C33.0188 27.4809 34.4702 28.0034 37.8568 32.0052C41.7272 36.7552 42.3658 38.8809 44.5332 38.8809H50.2323C51.8579 38.8809 52.6804 37.8834 52.2062 35.9121C51.1225 31.7677 43.7978 23.2415 43.4689 22.6715C42.6271 21.3415 42.869 20.7477 43.4689 19.5602C43.4785 19.5484 50.4355 7.53086 51.1516 3.45773Z" fill="white"/>
</svg>
